<?xml version="1.0" standalone="no"?>
<!DOCTYPE svg PUBLIC "-//W3C//DTD SVG 20010904//EN"
 "http://www.w3.org/TR/2001/REC-SVG-20010904/DTD/svg10.dtd">
<svg version="1.0" xmlns="http://www.w3.org/2000/svg"
 width="286.000000pt" height="176.000000pt" viewBox="0 0 286.000000 176.000000"
 preserveAspectRatio="xMidYMid meet">

<g transform="translate(0.000000,176.000000) scale(0.100000,-0.100000)"
fill="#000000" stroke="none">
<path d="M475 1246 c-64 -15 -142 -43 -162 -59 -7 -5 -25 -46 -39 -91 -50
-157 -42 -361 19 -486 21 -43 26 -46 107 -74 152 -51 344 -46 501 13 51 19 58
26 72 64 39 108 42 125 42 262 0 122 -3 149 -25 213 -29 89 -55 113 -148 143
-86 27 -279 35 -367 15z m313 -22 c37 -8 87 -25 112 -37 42 -21 46 -27 69 -97
22 -66 25 -92 25 -215 0 -125 -3 -148 -27 -214 -14 -40 -27 -74 -29 -76 -13
-10 -125 -45 -182 -55 -142 -26 -394 13 -434 67 -7 10 -23 50 -35 88 -18 57
-22 93 -21 195 0 112 3 134 30 209 29 84 29 84 79 103 129 50 284 62 413 32z"/>
<path d="M603 1183 c-13 -2 -36 -17 -52 -33 -52 -52 -47 -111 15 -187 44 -53
63 -101 65 -163 l1 -45 14 63 c16 72 25 92 70 147 45 55 55 86 43 127 -10 39
-41 72 -82 87 -29 11 -35 12 -74 4z"/>
<path d="M413 980 c-39 -23 -52 -63 -32 -99 18 -31 75 -71 101 -71 11 0 32
-10 46 -21 l27 -22 -45 7 c-25 4 -66 20 -92 36 l-48 29 0 -39 c0 -51 26 -70
98 -70 33 0 67 -7 92 -20 22 -11 42 -20 46 -20 4 0 4 34 1 76 -9 124 -58 203
-142 228 -12 3 -34 -2 -52 -14z"/>
<path d="M782 983 c-68 -33 -112 -125 -112 -235 0 -32 2 -58 5 -58 3 0 22 9
42 20 25 13 57 20 93 20 74 0 100 18 100 71 l0 39 -37 -24 c-42 -27 -143 -60
-143 -46 0 14 42 40 65 40 52 0 124 77 110 119 -7 23 -44 57 -70 65 -11 3 -35
-2 -53 -11z"/>
<path d="M426 613 c-4 -9 -1 -21 5 -27 9 -8 10 -8 5 2 -4 7 -2 19 4 27 7 9 8
15 2 15 -5 0 -13 -8 -16 -17z"/>
<path d="M801 598 c1 -31 1 -32 9 -8 4 14 8 20 9 14 1 -7 8 -14 16 -18 13 -5
13 -2 -1 19 -22 34 -34 31 -33 -7z"/>
<path d="M487 594 c-3 -18 -1 -22 6 -15 7 7 14 5 24 -7 11 -15 12 -15 7 -1 -3
10 0 20 5 24 16 9 4 25 -18 25 -12 0 -20 -9 -24 -26z m33 6 c0 -5 -2 -10 -4
-10 -3 0 -8 5 -11 10 -3 6 -1 10 4 10 6 0 11 -4 11 -10z"/>
<path d="M736 598 c-13 -18 -16 -19 -16 -5 0 10 -8 17 -20 17 -16 0 -20 -7
-20 -30 0 -23 4 -30 20 -30 10 0 23 7 28 16 6 11 11 13 16 5 8 -13 36 -15 36
-2 0 5 -8 8 -17 7 -10 0 -18 6 -18 14 0 8 8 14 17 14 10 -1 15 2 12 7 -9 15
-22 10 -38 -13z m-16 -28 c0 -5 -7 -10 -15 -10 -8 0 -15 5 -15 10 0 6 7 10 15
10 8 0 15 -4 15 -10z"/>
<path d="M581 588 c-1 -32 -15 -36 -30 -10 -9 15 -10 15 -11 1 0 -20 29 -34
43 -20 5 5 7 19 4 32 -4 22 -4 22 -6 -3z"/>
<path d="M607 604 c-4 -4 -7 -19 -7 -33 0 -14 4 -21 8 -15 4 6 15 14 25 17 10
4 17 13 15 20 -5 14 -31 21 -41 11z m28 -14 c-3 -5 -10 -10 -16 -10 -5 0 -9 5
-9 10 0 6 7 10 16 10 8 0 12 -4 9 -10z"/>
<path d="M456 584 c-5 -14 -4 -15 9 -4 17 14 19 20 6 20 -5 0 -12 -7 -15 -16z"/>
<path d="M1293 1141 c-5 -3 -21 -28 -37 -54 -19 -34 -26 -56 -22 -75 4 -16
-12 -105 -37 -217 l-44 -190 111 -5 c61 -3 137 -2 170 2 143 16 230 151 165
258 l-21 34 20 16 c81 66 81 194 0 218 -38 12 -291 23 -305 13z m225 -138 c6
-58 -11 -73 -78 -73 l-59 0 6 33 c14 74 18 78 75 75 52 -3 53 -4 56 -35z m-40
-165 c18 -18 14 -62 -9 -92 -18 -23 -28 -26 -81 -26 l-60 0 6 28 c27 109 21
102 79 102 29 0 58 -5 65 -12z"/>
<path d="M2075 1140 c-3 -5 -41 -10 -83 -10 -131 0 -221 -59 -284 -188 -29
-59 -33 -77 -33 -148 0 -73 3 -84 28 -117 43 -56 113 -88 202 -90 88 -2 103 8
134 90 12 31 20 57 19 58 -2 1 -23 0 -48 -4 -60 -9 -125 2 -150 24 -11 10 -25
36 -30 57 -28 104 111 195 240 157 25 -7 49 -13 53 -14 5 0 21 31 37 69 32 76
34 71 -32 106 -43 23 -45 23 -53 10z"/>
<path d="M2309 1118 c-7 -13 -21 -38 -31 -56 -10 -19 -16 -41 -14 -50 3 -10
-34 -102 -83 -207 -49 -104 -87 -193 -84 -197 2 -5 38 -8 79 -8 l75 0 21 50
21 51 71 -3 71 -3 3 -52 3 -53 74 0 c87 0 110 14 101 64 -2 17 -12 123 -21
236 -10 113 -21 215 -26 228 -8 21 -13 22 -128 22 -115 0 -121 -1 -132 -22z
m127 -305 c-6 -15 -96 -18 -96 -3 0 6 21 52 48 103 l47 92 3 -89 c2 -49 1 -95
-2 -103z"/>
</g>
</svg>
