<?xml version="1.0" standalone="no"?>
<!DOCTYPE svg PUBLIC "-//W3C//DTD SVG 20010904//EN"
 "http://www.w3.org/TR/2001/REC-SVG-20010904/DTD/svg10.dtd">
<svg version="1.0" xmlns="http://www.w3.org/2000/svg"
 width="399.000000pt" height="126.000000pt" viewBox="0 0 399.000000 126.000000"
 preserveAspectRatio="xMidYMid meet">

<g transform="translate(0.000000,126.000000) scale(0.100000,-0.100000)"
fill="#000000" stroke="none">
<path d="M130 1082 l0 -87 201 -250 c111 -138 203 -252 205 -254 3 -4 104 70
104 76 0 2 -25 40 -56 86 -116 172 -160 298 -151 435 l5 82 -154 0 -154 0 0
-88z"/>
<path d="M587 1163 c-12 -11 -7 -126 7 -181 17 -63 65 -168 93 -201 l20 -24
12 48 c16 65 35 99 84 152 63 69 126 97 217 98 41 0 87 -3 103 -8 l27 -7 0 65
0 65 -278 0 c-153 0 -282 -3 -285 -7z"/>
<path d="M1453 1150 c57 -45 57 -43 57 -489 0 -225 -4 -420 -9 -433 -5 -13
-22 -36 -37 -52 l-29 -28 250 5 c261 5 321 14 402 55 149 77 210 243 140 380
-30 58 -96 112 -162 133 -60 19 -60 20 -18 39 122 54 151 225 54 321 -20 20
-63 46 -96 59 -56 22 -77 24 -320 28 l-260 4 28 -22z m455 -99 c58 -30 82 -71
82 -143 0 -50 -4 -62 -30 -92 -38 -43 -70 -53 -192 -59 l-98 -5 0 165 0 166
98 -5 c73 -4 107 -10 140 -27z m-40 -391 c147 -21 223 -92 222 -210 -1 -129
-117 -199 -327 -200 l-93 0 0 208 0 209 63 2 c34 1 95 -3 135 -9z"/>
<path d="M2409 1144 c17 -14 35 -42 41 -62 6 -22 10 -195 10 -435 0 -434 -1
-443 -58 -487 l-25 -20 137 0 138 0 -31 26 c-17 14 -35 42 -41 62 -7 24 -10
155 -8 370 l3 332 229 -306 c244 -327 313 -407 410 -480 l61 -46 5 489 c5 461
6 491 24 518 11 16 29 37 40 47 20 17 16 17 -113 18 l-133 0 30 -28 c49 -46
53 -79 50 -432 l-3 -322 -290 391 -290 391 -108 0 -109 0 31 -26z"/>
<path d="M3579 1139 c17 -17 34 -43 39 -57 9 -35 9 -819 0 -853 -4 -15 -22
-40 -40 -58 l-32 -31 160 0 159 0 -27 23 c-56 46 -58 60 -58 494 0 367 2 401
19 439 10 23 29 49 42 58 22 15 14 16 -135 16 l-158 0 31 -31z"/>
<path d="M895 936 c-45 -20 -92 -76 -104 -122 -43 -163 190 -419 332 -365 l27
11 0 199 0 199 -32 28 c-71 59 -158 79 -223 50z"/>
<path d="M130 467 c0 -244 3 -307 12 -301 11 7 251 199 282 225 5 5 -53 85
-130 180 -76 95 -144 180 -151 188 -10 13 -12 -48 -13 -292z"/>
<path d="M638 472 c-26 -20 -47 -40 -48 -44 0 -3 29 -41 64 -85 81 -97 125
-128 183 -128 24 0 43 -2 43 -5 -1 -3 -17 -17 -37 -32 l-36 -28 171 0 172 0 0
116 c0 107 -1 116 -17 109 -10 -5 -43 -13 -74 -20 -106 -24 -210 12 -315 108
-28 26 -53 47 -55 47 -2 -1 -25 -18 -51 -38z"/>
<path d="M356 245 l-119 -95 192 0 193 0 -20 31 c-27 43 -116 158 -122 158 -3
0 -59 -42 -124 -94z"/>
</g>
</svg>
