<?xml version="1.0" standalone="no"?>
<!DOCTYPE svg PUBLIC "-//W3C//DTD SVG 20010904//EN"
 "http://www.w3.org/TR/2001/REC-SVG-20010904/DTD/svg10.dtd">
<svg version="1.0" xmlns="http://www.w3.org/2000/svg"
 width="460.000000pt" height="109.000000pt" viewBox="0 0 460.000000 109.000000"
 preserveAspectRatio="xMidYMid meet">

<g transform="translate(0.000000,109.000000) scale(0.100000,-0.100000)"
fill="#000000" stroke="none">
<path d="M114 1079 c-41 -12 -90 -68 -104 -119 -7 -27 -10 -173 -8 -433 3
-375 4 -394 24 -427 11 -19 35 -45 54 -57 33 -23 34 -23 460 -23 426 0 427 0
460 23 18 12 43 35 54 50 20 28 21 41 24 430 2 221 0 417 -3 435 -8 45 -68
109 -113 122 -46 12 -804 12 -848 -1z m236 -87 c68 -34 102 -130 69 -195 -6
-12 -61 -72 -122 -134 l-111 -112 108 -111 c113 -117 126 -138 126 -199 0 -85
-73 -141 -181 -141 -63 0 -69 2 -93 31 l-26 31 0 386 c1 414 1 421 51 448 35
19 137 17 179 -4z m300 0 c49 -24 80 -75 80 -131 0 -59 -9 -72 -139 -204
l-106 -107 218 -218 c120 -120 215 -221 211 -225 -4 -4 -101 -7 -215 -7 l-207
0 20 53 c24 63 26 149 3 203 -9 22 -50 74 -92 116 l-77 78 80 82 c99 101 119
146 112 246 -3 37 -13 82 -22 100 l-17 32 58 0 c35 0 72 -7 93 -18z m260 3
c16 -8 34 -24 40 -34 6 -13 10 -150 10 -373 l0 -353 -157 157 -157 157 75 78
c103 106 114 128 114 233 0 62 -5 94 -18 118 l-18 32 41 0 c23 0 54 -7 70 -15z"/>
<path d="M1250 556 l0 -266 153 0 c139 0 157 2 197 22 107 54 105 197 -3 234
l-32 11 32 16 c44 23 63 54 63 105 0 109 -46 134 -257 140 l-153 4 0 -266z
m260 144 c25 -25 25 -45 1 -69 -20 -20 -102 -38 -120 -26 -6 3 -11 31 -11 61
l0 54 55 0 c42 0 60 -5 75 -20z m8 -206 c28 -20 29 -65 1 -90 -15 -13 -36 -19
-77 -19 l-57 0 -3 63 -3 62 58 0 c37 0 67 -6 81 -16z"/>
<path d="M1785 588 c-49 -128 -94 -248 -102 -266 l-14 -33 72 3 72 3 20 53 20
52 102 0 102 0 20 -52 20 -53 76 -3 75 -3 -102 263 -102 263 -85 3 -86 3 -88
-233z m206 25 c16 -49 29 -94 29 -100 0 -9 -20 -13 -65 -13 -36 0 -65 3 -65 6
0 17 64 204 68 199 3 -3 18 -44 33 -92z"/>
<path d="M2280 555 l0 -265 60 0 60 0 2 181 3 182 93 -182 93 -181 90 0 89 0
0 265 0 265 -65 0 -65 0 -1 -182 0 -183 -92 183 -92 182 -87 0 -88 0 0 -265z"/>
<path d="M2820 555 l0 -265 70 0 69 0 3 121 3 121 80 -117 c43 -65 84 -119 90
-122 7 -2 47 -3 89 -1 l77 3 -100 134 c-56 74 -101 137 -101 140 0 3 43 59 95
125 52 65 95 120 95 122 0 2 -36 4 -80 4 l-80 0 -83 -112 -82 -112 -3 112 -3
112 -69 0 -70 0 0 -265z"/>
<path d="M3500 556 l0 -266 143 0 c78 0 158 5 178 10 78 22 121 101 97 176
-10 30 -23 44 -56 60 l-42 22 35 21 c58 34 75 123 34 175 -40 51 -71 59 -236
64 l-153 4 0 -266z m251 154 c13 -7 19 -21 19 -45 0 -42 -22 -56 -89 -58 l-46
-2 -3 58 -3 57 51 0 c28 0 60 -5 71 -10z m19 -220 c50 -50 11 -101 -80 -108
l-60 -4 0 66 0 66 60 0 c47 0 64 -4 80 -20z"/>
<path d="M3960 555 l0 -265 70 0 70 0 0 105 c0 105 0 105 25 105 35 0 71 -19
84 -44 6 -11 22 -52 34 -91 l24 -70 71 -3 c40 -2 72 -1 72 1 0 22 -85 226
-100 238 -18 16 -18 17 18 40 68 45 80 143 23 199 -37 37 -104 50 -261 50
l-130 0 0 -265z m260 152 c17 -8 26 -22 28 -43 4 -42 -24 -64 -92 -71 l-56 -6
0 67 0 66 48 0 c26 0 58 -6 72 -13z"/>
<path d="M4460 555 l0 -265 70 0 70 0 0 265 0 265 -70 0 -70 0 0 -265z"/>
</g>
</svg>
