<?xml version="1.0" standalone="no"?>
<!DOCTYPE svg PUBLIC "-//W3C//DTD SVG 20010904//EN"
 "http://www.w3.org/TR/2001/REC-SVG-20010904/DTD/svg10.dtd">
<svg version="1.0" xmlns="http://www.w3.org/2000/svg"
 width="635.000000pt" height="393.000000pt" viewBox="0 0 635.000000 393.000000"
 preserveAspectRatio="xMidYMid meet">

<g transform="translate(0.000000,393.000000) scale(0.100000,-0.100000)"
fill="#000000" stroke="none">
<path d="M3400 1953 c0 -90 -3 -163 -8 -163 -4 0 -12 8 -19 19 -19 30 -94 61
-150 61 -96 0 -157 -40 -198 -132 -25 -54 -29 -76 -29 -153 -2 -189 85 -304
229 -305 53 0 97 20 148 68 l27 26 0 -26 c0 -54 7 -58 86 -58 l74 0 -2 411 -3
411 -77 2 -78 2 0 -163z m-51 -212 c73 -78 67 -281 -10 -335 -36 -25 -111 -21
-137 7 -68 72 -69 256 -2 327 23 25 36 30 75 30 39 0 52 -5 74 -29z"/>
<path d="M1940 1879 c-73 -6 -150 -30 -150 -46 0 -13 21 -83 24 -83 2 0 21 7
42 16 22 9 67 16 102 16 71 1 107 -18 130 -66 18 -36 1 -56 -47 -56 -54 0
-164 -26 -209 -49 -70 -36 -104 -150 -68 -234 48 -113 174 -133 308 -50 21 13
40 23 43 23 3 0 5 -13 5 -30 l0 -30 66 0 66 0 -5 218 c-2 138 -8 228 -16 247
-38 93 -141 137 -291 124z m168 -362 c4 -71 -18 -107 -80 -132 -81 -32 -138 1
-138 80 1 44 13 65 49 84 27 15 104 30 141 28 23 -2 25 -6 28 -60z"/>
<path d="M1055 1870 c-40 -9 -86 -33 -109 -59 -27 -30 -36 -26 -36 14 l0 35
-75 0 -75 0 0 -285 0 -285 80 0 80 0 0 191 c0 158 3 197 17 226 33 71 135 82
173 20 18 -29 20 -51 20 -234 l0 -203 80 0 80 0 0 206 0 206 29 28 c65 66 158
43 175 -42 3 -17 6 -113 6 -214 l0 -184 81 0 81 0 -4 228 c-3 201 -6 232 -23
267 -31 61 -74 85 -157 85 -84 0 -125 -16 -164 -64 l-30 -36 -22 30 c-13 16
-33 37 -47 46 -29 19 -119 32 -160 24z"/>
<path d="M2610 1859 c-14 -6 -42 -26 -62 -47 l-38 -36 0 42 0 42 -75 0 -75 0
0 -285 0 -285 79 0 80 0 3 205 3 205 32 32 c28 28 40 32 80 32 37 -1 51 -6 68
-26 20 -24 22 -41 29 -220 4 -106 4 -201 0 -211 -5 -15 2 -17 76 -17 l82 0 -4
228 c-3 203 -5 231 -23 267 -31 62 -74 85 -159 84 -39 0 -82 -5 -96 -10z"/>
<path d="M4223 1860 c-58 -12 -102 -37 -115 -65 -17 -38 -28 -30 -28 20 l0 45
-76 0 -77 0 7 -92 c3 -50 6 -178 6 -285 l0 -193 80 0 80 0 0 170 c0 183 6 212
52 244 12 9 44 19 70 22 l48 7 0 68 c0 38 -1 69 -2 68 -2 -1 -22 -5 -45 -9z"/>
<path d="M3680 1575 l0 -285 80 0 80 0 0 285 0 285 -80 0 -80 0 0 -285z"/>
<path d="M4350 1575 l0 -285 80 0 80 0 0 285 0 285 -80 0 -80 0 0 -285z"/>
</g>
</svg>
